%
M48
M72
T01C0.0200
T02C0.0400
%
T01
X5100Y5550
X5600Y7650
X5400Y8600
X5600Y9600
X5800Y11500
X4600Y12600
X4450Y11100
X3600Y12600
X3225Y15725
X5500Y15500
X6050Y14700
X6500Y15550
X8100Y14600
X3100Y8900
T02
X1100Y1100
X1100Y2100
X1100Y3100
X1100Y4100
X1100Y5100
X1100Y6100
X1100Y7100
X1100Y8100
X1100Y9100
X1100Y10100
X1100Y11100
X1100Y12100
X1100Y13100
X1100Y14100
X1100Y15100
X1100Y16100
X2600Y17100
X3600Y17100
X4600Y17100
X5600Y17100
X6600Y17100
X7600Y17100
X8600Y17100
X10100Y16100
X10100Y15100
X10100Y14100
X10100Y13100
X10100Y12100
X10100Y11100
X10100Y10100
X10100Y9100
X10100Y8100
X10100Y7100
X10100Y6100
X10100Y5100
X10100Y4100
X10100Y3100
X10100Y2100
X10100Y1100
M30
