G75*
%MOIN*%
%OFA0B0*%
%FSLAX24Y24*%
%IPPOS*%
%LPD*%
%AMOC8*
5,1,8,0,0,1.08239X$1,22.5*
%
%ADD10C,0.0600*%
%ADD11R,0.0700X0.0170*%
%ADD12C,0.0160*%
%ADD13C,0.0360*%
%ADD14C,0.0100*%
D10*
X000800Y001100D02*
X001400Y001100D01*
X001400Y002100D02*
X000800Y002100D01*
X000800Y003100D02*
X001400Y003100D01*
X001400Y004100D02*
X000800Y004100D01*
X000800Y005100D02*
X001400Y005100D01*
X001400Y006100D02*
X000800Y006100D01*
X000800Y007100D02*
X001400Y007100D01*
X001400Y008100D02*
X000800Y008100D01*
X000800Y009100D02*
X001400Y009100D01*
X001400Y010100D02*
X000800Y010100D01*
X000800Y011100D02*
X001400Y011100D01*
X001400Y012100D02*
X000800Y012100D01*
X000800Y013100D02*
X001400Y013100D01*
X001400Y014100D02*
X000800Y014100D01*
X000800Y015100D02*
X001400Y015100D01*
X001400Y016100D02*
X000800Y016100D01*
X002600Y016800D02*
X002600Y017400D01*
X003600Y017400D02*
X003600Y016800D01*
X004600Y016800D02*
X004600Y017400D01*
X005600Y017400D02*
X005600Y016800D01*
X006600Y016800D02*
X006600Y017400D01*
X007600Y017400D02*
X007600Y016800D01*
X008600Y016800D02*
X008600Y017400D01*
X009800Y016100D02*
X010400Y016100D01*
X010400Y015100D02*
X009800Y015100D01*
X009800Y014100D02*
X010400Y014100D01*
X010400Y013100D02*
X009800Y013100D01*
X009800Y012100D02*
X010400Y012100D01*
X010400Y011100D02*
X009800Y011100D01*
X009800Y010100D02*
X010400Y010100D01*
X010400Y009100D02*
X009800Y009100D01*
X009800Y008100D02*
X010400Y008100D01*
X010400Y007100D02*
X009800Y007100D01*
X009800Y006100D02*
X010400Y006100D01*
X010400Y005100D02*
X009800Y005100D01*
X009800Y004100D02*
X010400Y004100D01*
X010400Y003100D02*
X009800Y003100D01*
X009800Y002100D02*
X010400Y002100D01*
X010400Y001100D02*
X009800Y001100D01*
D11*
X006770Y006936D03*
X006770Y007192D03*
X006770Y007448D03*
X006770Y007704D03*
X006770Y007960D03*
X006770Y008216D03*
X006770Y008472D03*
X006770Y008728D03*
X006770Y008984D03*
X006770Y009240D03*
X006770Y009496D03*
X006770Y009752D03*
X006770Y010008D03*
X006770Y010264D03*
X004430Y010264D03*
X004430Y010008D03*
X004430Y009752D03*
X004430Y009496D03*
X004430Y009240D03*
X004430Y008984D03*
X004430Y008728D03*
X004430Y008472D03*
X004430Y008216D03*
X004430Y007960D03*
X004430Y007704D03*
X004430Y007448D03*
X004430Y007192D03*
X004430Y006936D03*
D12*
X004430Y005270D01*
X004600Y005100D01*
X010100Y005100D01*
X010100Y006100D02*
X007100Y006100D01*
X006770Y006430D01*
X006770Y006936D01*
X006770Y007192D02*
X010008Y007192D01*
X010100Y007100D01*
X010100Y008100D02*
X009600Y008100D01*
X008948Y007448D01*
X006770Y007448D01*
X006770Y007704D02*
X008704Y007704D01*
X009100Y008100D01*
X009100Y008600D01*
X009600Y009100D01*
X010100Y009100D01*
X010100Y010100D02*
X009600Y010100D01*
X008600Y009100D01*
X008600Y008100D01*
X008460Y007960D01*
X006770Y007960D01*
X006770Y008216D02*
X006166Y008216D01*
X005600Y007650D01*
X005528Y008472D02*
X005400Y008600D01*
X005400Y008800D01*
X005000Y009200D01*
X005000Y011900D01*
X004700Y012200D01*
X004150Y012200D01*
X004100Y012250D01*
X004100Y012850D01*
X003400Y013550D01*
X003400Y014300D01*
X005600Y016500D01*
X005600Y017100D01*
X007150Y016200D02*
X006500Y015550D01*
X007150Y016200D02*
X007200Y016200D01*
X007600Y016600D01*
X007600Y017100D01*
X008600Y017100D02*
X008600Y014100D01*
X008100Y013600D01*
X008100Y013100D01*
X006100Y011100D01*
X006100Y010100D01*
X005600Y009600D01*
X006216Y008984D01*
X006770Y008984D01*
X006770Y009240D02*
X008240Y009240D01*
X009100Y010100D01*
X009100Y010600D01*
X009600Y011100D01*
X010100Y011100D01*
X010100Y012100D02*
X009600Y012100D01*
X009100Y011600D01*
X009100Y011100D01*
X008600Y010600D01*
X008600Y010100D01*
X007996Y009496D01*
X006770Y009496D01*
X006770Y009752D02*
X007752Y009752D01*
X008100Y010100D01*
X008100Y010600D01*
X008600Y011100D01*
X008600Y011600D01*
X009100Y012100D01*
X009100Y012600D01*
X009600Y013100D01*
X010100Y013100D01*
X010100Y014100D02*
X009600Y014100D01*
X009100Y013600D01*
X009100Y013100D01*
X008600Y012600D01*
X008600Y012100D01*
X008100Y011600D01*
X008100Y011100D01*
X007600Y010600D01*
X007600Y010100D01*
X007508Y010008D01*
X006770Y010008D01*
X006770Y010264D02*
X006770Y010270D01*
X007600Y011100D01*
X007600Y011600D01*
X008100Y012100D01*
X008100Y012600D01*
X008600Y013100D01*
X008600Y013600D01*
X009100Y014100D01*
X009100Y014600D01*
X009600Y015100D01*
X010100Y015100D01*
X008100Y014600D02*
X007600Y014100D01*
X007600Y013300D01*
X005800Y011500D01*
X005250Y012450D02*
X005100Y012600D01*
X004600Y012600D01*
X005250Y012450D02*
X005250Y009450D01*
X005972Y008728D01*
X006770Y008728D01*
X006770Y008472D02*
X005528Y008472D01*
X004430Y008472D02*
X003972Y008472D01*
X003700Y008200D01*
X002600Y008200D01*
X002100Y008700D01*
X002100Y015100D01*
X002600Y015600D01*
X002600Y017100D01*
X003600Y016100D02*
X003225Y015725D01*
X002600Y015100D01*
X002600Y010300D01*
X002500Y010200D01*
X002500Y008800D01*
X002800Y008500D01*
X003550Y008500D01*
X003778Y008728D01*
X004430Y008728D01*
X004430Y007960D02*
X002460Y007960D01*
X002100Y007600D01*
X002100Y003600D01*
X004600Y001100D01*
X010100Y001100D01*
X010100Y002100D02*
X004600Y002100D01*
X002600Y004100D01*
X002600Y007100D01*
X003204Y007704D01*
X004430Y007704D01*
X004430Y007448D02*
X003448Y007448D01*
X003100Y007100D01*
X003100Y004600D01*
X004600Y003100D01*
X010100Y003100D01*
X010100Y004100D02*
X004600Y004100D01*
X003600Y005100D01*
X003600Y007100D01*
X003692Y007192D01*
X004430Y007192D01*
X003100Y008900D02*
X003200Y009000D01*
X003100Y008900D02*
X003100Y012600D01*
X003600Y012600D01*
X003100Y012600D02*
X003100Y014450D01*
X004600Y015950D01*
X004600Y017100D01*
X003600Y017100D02*
X003600Y016100D01*
X005500Y015500D02*
X005500Y015250D01*
X006050Y014700D01*
X004450Y011100D02*
X004430Y011080D01*
X004430Y010264D01*
D13*
X004450Y011100D03*
X004600Y012600D03*
X003600Y012600D03*
X003225Y015725D03*
X005500Y015500D03*
X006050Y014700D03*
X006500Y015550D03*
X008100Y014600D03*
X005800Y011500D03*
X005600Y009600D03*
X005400Y008600D03*
X005600Y007650D03*
X005100Y005550D03*
X003100Y008900D03*
D14*
X004430Y008216D02*
X004834Y008216D01*
X004900Y008150D01*
X004900Y005750D01*
X005100Y005550D01*
M02*
