G75*
%MOIN*%
%OFA0B0*%
%FSLAX24Y24*%
%IPPOS*%
%LPD*%
%AMOC8*
5,1,8,0,0,1.08239X$1,22.5*
%
%ADD10C,0.0000*%
%ADD11C,0.0600*%
%ADD12R,0.0700X0.0170*%
%ADD13C,0.0160*%
%ADD14C,0.0360*%
%ADD15C,0.0100*%
D10*
X000100Y000100D02*
X000100Y018600D01*
X011100Y018600D01*
X011100Y000100D01*
X000100Y000100D01*
D11*
X000800Y001100D02*
X001400Y001100D01*
X001400Y002100D02*
X000800Y002100D01*
X000800Y003100D02*
X001400Y003100D01*
X001400Y004100D02*
X000800Y004100D01*
X000800Y005100D02*
X001400Y005100D01*
X001400Y006100D02*
X000800Y006100D01*
X000800Y007100D02*
X001400Y007100D01*
X001400Y008100D02*
X000800Y008100D01*
X000800Y009100D02*
X001400Y009100D01*
X001400Y010100D02*
X000800Y010100D01*
X000800Y011100D02*
X001400Y011100D01*
X001400Y012100D02*
X000800Y012100D01*
X000800Y013100D02*
X001400Y013100D01*
X001400Y014100D02*
X000800Y014100D01*
X000800Y015100D02*
X001400Y015100D01*
X001400Y016100D02*
X000800Y016100D01*
X002600Y016800D02*
X002600Y017400D01*
X003600Y017400D02*
X003600Y016800D01*
X004600Y016800D02*
X004600Y017400D01*
X005600Y017400D02*
X005600Y016800D01*
X006600Y016800D02*
X006600Y017400D01*
X007600Y017400D02*
X007600Y016800D01*
X008600Y016800D02*
X008600Y017400D01*
X009800Y016100D02*
X010400Y016100D01*
X010400Y015100D02*
X009800Y015100D01*
X009800Y014100D02*
X010400Y014100D01*
X010400Y013100D02*
X009800Y013100D01*
X009800Y012100D02*
X010400Y012100D01*
X010400Y011100D02*
X009800Y011100D01*
X009800Y010100D02*
X010400Y010100D01*
X010400Y009100D02*
X009800Y009100D01*
X009800Y008100D02*
X010400Y008100D01*
X010400Y007100D02*
X009800Y007100D01*
X009800Y006100D02*
X010400Y006100D01*
X010400Y005100D02*
X009800Y005100D01*
X009800Y004100D02*
X010400Y004100D01*
X010400Y003100D02*
X009800Y003100D01*
X009800Y002100D02*
X010400Y002100D01*
X010400Y001100D02*
X009800Y001100D01*
D12*
X006770Y006936D03*
X006770Y007192D03*
X006770Y007448D03*
X006770Y007704D03*
X006770Y007960D03*
X006770Y008216D03*
X006770Y008472D03*
X006770Y008728D03*
X006770Y008984D03*
X006770Y009240D03*
X006770Y009496D03*
X006770Y009752D03*
X006770Y010008D03*
X006770Y010264D03*
X004430Y010264D03*
X004430Y010008D03*
X004430Y009752D03*
X004430Y009496D03*
X004430Y009240D03*
X004430Y008984D03*
X004430Y008728D03*
X004430Y008472D03*
X004430Y008216D03*
X004430Y007960D03*
X004430Y007704D03*
X004430Y007448D03*
X004430Y007192D03*
X004430Y006936D03*
D13*
X004450Y006916D01*
X004450Y006600D01*
X003950Y006100D01*
X001100Y006100D01*
X001100Y005100D02*
X006250Y005100D01*
X006800Y005650D01*
X006800Y006906D01*
X006770Y006936D01*
X006770Y007192D02*
X006778Y007200D01*
X007450Y007200D01*
X007600Y007050D01*
X007600Y004600D01*
X007100Y004100D01*
X001100Y004100D01*
X001100Y003100D02*
X007600Y003100D01*
X008100Y003600D01*
X008100Y007300D01*
X007950Y007450D01*
X006772Y007450D01*
X006770Y007448D01*
X006774Y007700D02*
X006770Y007704D01*
X006774Y007700D02*
X008400Y007700D01*
X008600Y007500D01*
X008600Y002600D01*
X008100Y002100D01*
X001100Y002100D01*
X001100Y001100D02*
X008100Y001100D01*
X009100Y002100D01*
X009100Y007600D01*
X008740Y007960D01*
X006770Y007960D01*
X006770Y008216D02*
X007616Y008216D01*
X008000Y008600D01*
X008000Y010650D01*
X007700Y010950D01*
X007700Y012450D01*
X007050Y013100D01*
X006900Y013100D01*
X006750Y013250D01*
X006750Y013900D01*
X007150Y014300D01*
X007150Y014750D01*
X007550Y015150D01*
X007550Y016050D01*
X007700Y016200D01*
X008950Y016200D01*
X009400Y016650D01*
X009400Y017800D01*
X009200Y018000D01*
X006800Y018000D01*
X006600Y017800D01*
X006600Y017100D01*
X007050Y016200D02*
X007200Y016050D01*
X007200Y015250D01*
X006850Y014900D01*
X006850Y014450D01*
X006450Y014050D01*
X006450Y012850D01*
X006500Y012800D01*
X006950Y012800D01*
X007450Y012300D01*
X007450Y010800D01*
X007700Y010550D01*
X007700Y008750D01*
X007422Y008472D01*
X006770Y008472D01*
X006770Y008728D02*
X007228Y008728D01*
X007400Y008900D01*
X007400Y010400D01*
X007150Y010650D01*
X007150Y012150D01*
X006750Y012550D01*
X006300Y012550D01*
X006150Y012700D01*
X006150Y014200D01*
X006500Y014550D01*
X006500Y014950D01*
X006900Y015350D01*
X006900Y015800D01*
X006800Y015900D01*
X003400Y015900D01*
X003225Y015725D01*
X003350Y015200D02*
X003000Y015200D01*
X002100Y016100D01*
X001100Y016100D01*
X001100Y015100D02*
X001850Y015100D01*
X003050Y013900D01*
X003050Y011000D01*
X003786Y010264D01*
X004430Y010264D01*
X004430Y010008D02*
X003592Y010008D01*
X002750Y010850D01*
X002750Y012950D01*
X001600Y014100D01*
X001100Y014100D01*
X001100Y013100D02*
X001600Y013100D01*
X002400Y012300D01*
X002400Y010800D01*
X003448Y009752D01*
X004430Y009752D01*
X004430Y009496D02*
X003304Y009496D01*
X002100Y010700D01*
X002100Y011600D01*
X001600Y012100D01*
X001100Y012100D01*
X001100Y011100D02*
X001250Y011100D01*
X003110Y009240D01*
X004430Y009240D01*
X004430Y008984D02*
X004984Y008984D01*
X005600Y009600D01*
X006100Y009100D02*
X005950Y008950D01*
X005950Y008000D01*
X005600Y007650D01*
X005034Y008216D01*
X004430Y008216D01*
X004430Y007960D02*
X003240Y007960D01*
X002100Y009100D01*
X002100Y009600D01*
X001600Y010100D01*
X001100Y010100D01*
X001100Y009100D02*
X001600Y009100D01*
X002996Y007704D01*
X004430Y007704D01*
X004430Y007448D02*
X002752Y007448D01*
X002100Y008100D01*
X001100Y008100D01*
X001100Y007100D02*
X002100Y007100D01*
X002192Y007192D01*
X004430Y007192D01*
X004430Y008472D02*
X005272Y008472D01*
X005400Y008600D01*
X006100Y009100D02*
X006100Y011100D01*
X006600Y011600D01*
X006600Y011850D01*
X006450Y012000D01*
X005750Y012000D01*
X005500Y012250D01*
X005500Y014750D01*
X005900Y015150D01*
X006100Y015150D01*
X006500Y015550D01*
X007050Y016200D02*
X002800Y016200D01*
X002600Y016400D01*
X002600Y017100D01*
X003750Y015600D02*
X003350Y015200D01*
X003750Y015600D02*
X005400Y015600D01*
X005500Y015500D01*
X006050Y014700D02*
X005800Y014450D01*
X005800Y012500D01*
X006050Y012250D01*
X006650Y012250D01*
X006900Y012000D01*
X006900Y011450D01*
X006770Y011320D01*
X006770Y010264D01*
X005800Y011500D02*
X005400Y011100D01*
X004450Y011100D01*
X004600Y012600D02*
X003600Y012600D01*
X003100Y008900D02*
X003272Y008728D01*
X004430Y008728D01*
X008100Y014600D02*
X009600Y016100D01*
X010100Y016100D01*
D14*
X008100Y014600D03*
X006500Y015550D03*
X006050Y014700D03*
X005500Y015500D03*
X004600Y012600D03*
X004450Y011100D03*
X003600Y012600D03*
X003225Y015725D03*
X005800Y011500D03*
X005600Y009600D03*
X005400Y008600D03*
X005600Y007650D03*
X005100Y005550D03*
X003100Y008900D03*
D15*
X005100Y005550D02*
X006150Y005550D01*
X006250Y005650D01*
X006250Y008850D01*
X006400Y009000D01*
X006754Y009000D01*
X006770Y008984D01*
M02*
