G75*
%MOIN*%
%OFA0B0*%
%FSLAX24Y24*%
%IPPOS*%
%LPD*%
%AMOC8*
5,1,8,0,0,1.08239X$1,22.5*
%
%ADD10C,0.0680*%
%ADD11R,0.0780X0.0250*%
%ADD12C,0.0440*%
D10*
X000800Y001100D02*
X001400Y001100D01*
X001400Y002100D02*
X000800Y002100D01*
X000800Y003100D02*
X001400Y003100D01*
X001400Y004100D02*
X000800Y004100D01*
X000800Y005100D02*
X001400Y005100D01*
X001400Y006100D02*
X000800Y006100D01*
X000800Y007100D02*
X001400Y007100D01*
X001400Y008100D02*
X000800Y008100D01*
X000800Y009100D02*
X001400Y009100D01*
X001400Y010100D02*
X000800Y010100D01*
X000800Y011100D02*
X001400Y011100D01*
X001400Y012100D02*
X000800Y012100D01*
X000800Y013100D02*
X001400Y013100D01*
X001400Y014100D02*
X000800Y014100D01*
X000800Y015100D02*
X001400Y015100D01*
X001400Y016100D02*
X000800Y016100D01*
X002600Y016800D02*
X002600Y017400D01*
X003600Y017400D02*
X003600Y016800D01*
X004600Y016800D02*
X004600Y017400D01*
X005600Y017400D02*
X005600Y016800D01*
X006600Y016800D02*
X006600Y017400D01*
X007600Y017400D02*
X007600Y016800D01*
X008600Y016800D02*
X008600Y017400D01*
X009800Y016100D02*
X010400Y016100D01*
X010400Y015100D02*
X009800Y015100D01*
X009800Y014100D02*
X010400Y014100D01*
X010400Y013100D02*
X009800Y013100D01*
X009800Y012100D02*
X010400Y012100D01*
X010400Y011100D02*
X009800Y011100D01*
X009800Y010100D02*
X010400Y010100D01*
X010400Y009100D02*
X009800Y009100D01*
X009800Y008100D02*
X010400Y008100D01*
X010400Y007100D02*
X009800Y007100D01*
X009800Y006100D02*
X010400Y006100D01*
X010400Y005100D02*
X009800Y005100D01*
X009800Y004100D02*
X010400Y004100D01*
X010400Y003100D02*
X009800Y003100D01*
X009800Y002100D02*
X010400Y002100D01*
X010400Y001100D02*
X009800Y001100D01*
D11*
X006770Y006936D03*
X006770Y007192D03*
X006770Y007448D03*
X006770Y007704D03*
X006770Y007960D03*
X006770Y008216D03*
X006770Y008472D03*
X006770Y008728D03*
X006770Y008984D03*
X006770Y009240D03*
X006770Y009496D03*
X006770Y009752D03*
X006770Y010008D03*
X006770Y010264D03*
X004430Y010264D03*
X004430Y010008D03*
X004430Y009752D03*
X004430Y009496D03*
X004430Y009240D03*
X004430Y008984D03*
X004430Y008728D03*
X004430Y008472D03*
X004430Y008216D03*
X004430Y007960D03*
X004430Y007704D03*
X004430Y007448D03*
X004430Y007192D03*
X004430Y006936D03*
D12*
X005100Y005550D03*
X005600Y007650D03*
X005400Y008600D03*
X005600Y009600D03*
X005800Y011500D03*
X004600Y012600D03*
X004450Y011100D03*
X003600Y012600D03*
X003225Y015725D03*
X005500Y015500D03*
X006050Y014700D03*
X006500Y015550D03*
X008100Y014600D03*
X003100Y008900D03*
M02*
