G75*
%MOIN*%
%OFA0B0*%
%FSLAX24Y24*%
%IPPOS*%
%LPD*%
%AMOC8*
5,1,8,0,0,1.08239X$1,22.5*
%
%ADD10C,0.0740*%
%ADD11C,0.0500*%
%ADD12C,0.0160*%
D10*
X001100Y001150D03*
X002100Y001050D03*
X003100Y001150D03*
X004100Y001050D03*
X005100Y001150D03*
X006100Y001050D03*
X007100Y001150D03*
X008100Y001050D03*
X009100Y001150D03*
X010100Y001050D03*
X011100Y001150D03*
D11*
X007287Y004044D03*
X008156Y004913D03*
X008474Y006100D03*
X008156Y007287D03*
X007287Y008156D03*
X006100Y008474D03*
X004913Y008156D03*
X004044Y007287D03*
X003726Y006100D03*
X004044Y004913D03*
X004913Y004044D03*
D12*
X004913Y003913D01*
X003350Y002350D01*
X001600Y002350D01*
X001100Y001850D01*
X001100Y001150D01*
X004100Y001050D02*
X004100Y002100D01*
X005850Y003850D01*
X005850Y005350D01*
X004044Y007156D01*
X004044Y007287D01*
X006350Y005350D02*
X006350Y003850D01*
X008100Y002100D01*
X008100Y001050D01*
X008850Y002350D02*
X010600Y002350D01*
X011100Y001850D01*
X011100Y001150D01*
X008850Y002350D02*
X007287Y003913D01*
X007287Y004044D01*
X006350Y005350D02*
X008156Y007156D01*
X008156Y007287D01*
M02*
